<?xml version="1.0" encoding="UTF-8"?>
<svg version="1.1" xmlns="http://www.w3.org/2000/svg" width="512" height="512">
<path d="M0 0 C1.11086839 -0.00445784 2.22173679 -0.00891569 3.36626786 -0.01350862 C4.59687985 -0.01332426 5.82749183 -0.01313989 7.09539509 -0.01294994 C9.04452973 -0.01846498 9.04452973 -0.01846498 11.03304082 -0.02409142 C14.65211141 -0.0341284 18.27116541 -0.03783094 21.89024794 -0.04048073 C25.78882246 -0.04437881 29.68738378 -0.05395753 33.5859499 -0.0626936 C43.00754984 -0.08247292 52.42915087 -0.09252644 61.85076639 -0.10142139 C66.28543208 -0.10580221 70.72009657 -0.11116958 75.15476131 -0.11641026 C89.89330485 -0.13342461 104.63184763 -0.14791906 119.37039948 -0.155159 C123.19672554 -0.15706896 127.02305159 -0.15898928 130.84937763 -0.16094494 C131.80041657 -0.16142868 132.7514555 -0.16191242 133.7313138 -0.16241082 C149.13946067 -0.17071209 164.54752993 -0.19604972 179.9556429 -0.22852562 C195.76800511 -0.26158231 211.58032786 -0.27960653 227.39272481 -0.28280324 C236.27354448 -0.28496971 245.15425101 -0.29373832 254.03503704 -0.31926441 C261.59812786 -0.34095252 269.16107806 -0.34903121 276.72419646 -0.33929763 C280.58332029 -0.3347473 284.44215388 -0.33668136 288.30123806 -0.35605907 C292.48527021 -0.37688702 296.66865634 -0.36672356 300.85271931 -0.35352612 C302.07217768 -0.36449536 303.29163606 -0.37546461 304.54804772 -0.38676625 C311.1805206 -0.33612814 315.44664733 0.07438648 320.7915163 4.13422108 C324.6762864 9.04129909 325.9285887 12.75092787 325.88917255 18.89984608 C325.8859499 19.7892992 325.88272724 20.67875233 325.87940693 21.59515858 C325.87102802 22.5155492 325.86264912 23.43593983 325.8540163 24.38422108 C325.84950459 25.32008045 325.84499287 26.25593983 325.84034443 27.22015858 C325.82858549 29.52491149 325.81215056 31.82953334 325.7915163 34.13422108 C326.60869129 34.12533863 327.42586628 34.11645618 328.26780415 34.10730457 C336.00534785 34.0268346 343.74268588 33.96609329 351.48054028 33.92697239 C355.45775438 33.90618307 359.43461993 33.87802626 363.41163349 33.83246326 C367.25663984 33.78869314 371.10131297 33.76501904 374.94654942 33.7547121 C376.4064492 33.74737614 377.86633274 33.73305202 379.32608891 33.71130085 C392.35939951 33.52499161 402.21635225 35.88138928 411.7915163 45.13422108 C419.23205107 53.89215726 420.1147227 64.70966955 420.28761005 75.75140858 C419.71001719 79.68995522 418.61093011 81.37256063 415.7915163 84.13422108 C415.1315163 84.13422108 414.4715163 84.13422108 413.7915163 84.13422108 C415.32592975 91.46701174 416.94803118 98.77638332 418.63160419 106.07635975 C419.19350399 108.55982409 419.73542599 111.04789875 420.25660419 113.54022694 C422.28658915 126.51255874 422.28658915 126.51255874 428.31019306 137.71298695 C431.8931364 140.03870083 435.6483465 140.53446051 439.7915163 141.13422108 C450.51724752 146.59258379 456.62212049 155.0388041 460.7915163 166.13422108 C461.60386909 168.93431817 461.922915 171.43456556 461.94541645 174.34674549 C461.95401691 175.17946476 461.96261738 176.01218403 461.97147846 176.87013721 C461.97786839 178.22772396 461.97786839 178.22772396 461.9843874 179.6127367 C461.99256489 180.57249912 462.00074238 181.53226154 462.00916767 182.52110767 C462.03396394 185.69422249 462.05051856 188.86729291 462.0649538 192.04047108 C462.07293932 193.66581524 462.07293932 193.66581524 462.08108616 195.32399464 C462.10778632 201.05386109 462.12717554 206.78370595 462.14161396 212.51361561 C462.15498172 217.26088068 462.18289121 222.00771882 462.22364521 226.75482655 C462.27283626 232.48476241 462.2977176 238.21430949 462.30484104 243.94444752 C462.31157036 246.12939671 462.32683571 248.31433666 462.35073185 250.49916553 C462.38222804 253.5518105 462.38244398 256.60294177 462.3750124 259.65570545 C462.3996204 261.0132922 462.3996204 261.0132922 462.42472553 262.39830494 C462.36371453 268.50579446 462.36371453 268.50579446 459.45690632 271.69824696 C456.08169695 273.51663499 453.78358749 273.59223114 449.95948505 273.52484608 C448.02105732 273.50551014 448.02105732 273.50551014 446.04346943 273.48578358 C444.68864085 273.45236742 443.33382314 273.4185077 441.9790163 273.38422108 C440.60469314 273.36414142 439.23034191 273.34589321 437.85596943 273.32953358 C434.50043774 273.2824384 431.14633503 273.21667243 427.7915163 273.13422108 C427.80964375 273.70994862 427.82777119 274.28567616 427.84644794 274.87884998 C428.09745498 288.72583247 422.36611683 300.43381384 412.9790163 310.44672108 C401.87424277 320.86943559 389.12184629 324.7623284 374.15968037 324.60687733 C359.82631052 324.10757024 347.7329857 318.05677109 337.89698505 307.68109608 C329.083275 297.01961379 325.7915163 286.81252274 325.7915163 273.13422108 C266.3915163 273.13422108 206.9915163 273.13422108 145.7915163 273.13422108 C145.7915163 275.77422108 145.7915163 278.41422108 145.7915163 281.13422108 C143.39779785 294.29223867 137.26797223 305.69237499 126.7915163 314.13422108 C113.30178105 323.40724794 100.90396882 325.59868202 84.7915163 324.13422108 C71.11705811 321.51476318 59.67830991 313.424696 51.72511005 302.22406483 C47.08061992 294.80226341 43.61294906 286.70533148 43.7290163 277.88422108 C43.73803974 276.99218983 43.74706318 276.10015858 43.75636005 275.18109608 C43.76796162 274.50562733 43.77956318 273.83015858 43.7915163 273.13422108 C43.20349232 273.14088291 42.61546833 273.14754475 42.00962543 273.15440845 C35.87757058 273.22088992 29.74561848 273.26607485 23.61329365 273.299016 C21.32614195 273.31408223 19.03901905 273.33453904 16.75196552 273.36053944 C13.46038923 273.39701714 10.16919568 273.41396941 6.8774538 273.42718983 C5.34899326 273.45041561 5.34899326 273.45041561 3.78965473 273.4741106 C-2.40111446 273.47557101 -7.11332223 273.02352857 -11.85301495 268.59906483 C-15.15016918 264.2874016 -16.33572727 262.29255231 -16.30613995 256.90765858 C-16.30291729 255.87640858 -16.29969463 254.84515858 -16.29637432 253.78265858 C-16.28380596 252.16230701 -16.28380596 252.16230701 -16.2709837 250.50922108 C-16.26647198 249.42125233 -16.26196026 248.33328358 -16.25731182 247.21234608 C-16.24550146 244.51958319 -16.22903148 241.82692919 -16.2084837 239.13422108 C-17.06079571 239.15516834 -17.91310772 239.17611561 -18.79124737 239.19769764 C-21.96877803 239.26607351 -25.1459324 239.31611845 -28.32396221 239.35394764 C-29.69648393 239.37400098 -31.06892087 239.40125136 -32.44114971 239.43597889 C-34.41920414 239.48476659 -36.39789488 239.50510984 -38.37645245 239.52484608 C-39.56520977 239.54579334 -40.75396709 239.56674061 -41.97874737 239.58832264 C-45.84564031 239.04463673 -47.47377532 237.86861371 -50.2084837 235.13422108 C-50.8725462 232.91547108 -50.8725462 232.91547108 -50.8334837 230.63422108 C-50.84637432 229.88140858 -50.85926495 229.12859608 -50.8725462 228.35297108 C-49.86395047 224.98307478 -48.14630116 224.01040412 -45.2084837 222.13422108 C-42.37368927 221.74701103 -39.93079648 221.58610481 -37.10106182 221.61664295 C-36.2988168 221.60963367 -35.49657177 221.6026244 -34.67001629 221.59540272 C-32.02623347 221.57784141 -29.38352682 221.5894384 -26.7397337 221.60297108 C-24.89797543 221.60027562 -23.05621855 221.59639274 -21.21446514 221.5913744 C-17.35767832 221.58548189 -13.50126249 221.59403428 -9.64451885 221.6127367 C-4.70459494 221.63552618 0.23445966 221.62240176 5.17435169 221.59844685 C8.97653962 221.58398215 12.77852196 221.58859793 16.58071613 221.59895802 C18.40195538 221.60162345 20.22321339 221.59836199 22.04443073 221.5890398 C24.5914871 221.578863 27.13714224 221.59439003 29.68409443 221.61664295 C30.43437412 221.60854603 31.18465382 221.6004491 31.95766926 221.59210682 C35.60975272 221.6511206 37.64922862 222.04335166 40.75672626 224.02789783 C43.07051983 226.42303299 43.4726854 227.35394591 43.4165163 230.63422108 C43.43585224 231.76343983 43.43585224 231.76343983 43.4555788 232.91547108 C42.44131151 236.30431708 40.7615175 237.26413962 37.7915163 239.13422108 C34.79807698 239.47712907 32.1902902 239.60338763 29.20948505 239.52484608 C27.98821667 239.51635639 27.98821667 239.51635639 26.74227619 239.5076952 C24.15391278 239.48538882 21.5669579 239.43520552 18.9790163 239.38422108 C17.21927074 239.36414855 15.45950337 239.34589909 13.69971943 239.32953358 C9.39601215 239.28895171 5.09533175 239.21065786 0.7915163 239.13422108 C0.7915163 244.74422108 0.7915163 250.35422108 0.7915163 256.13422108 C15.9715163 256.13422108 31.1515163 256.13422108 46.7915163 256.13422108 C47.1215163 254.48422108 47.4515163 252.83422108 47.7915163 251.13422108 C54.31923771 238.47611784 64.04337917 229.00712394 77.6040163 224.32172108 C91.79185823 219.92961241 105.62117509 221.38890098 118.9477663 227.60687733 C130.19760216 233.61531239 137.6482984 242.51659947 142.7915163 254.13422108 C142.7915163 254.79422108 142.7915163 255.45422108 142.7915163 256.13422108 C197.5715163 256.13422108 252.3515163 256.13422108 308.7915163 256.13422108 C308.7915163 235.01422108 308.7915163 213.89422108 308.7915163 192.13422108 C312.7915163 188.13422108 312.7915163 188.13422108 314.7915163 187.60297108 C318.4678906 187.66041443 320.22871243 187.70129502 323.2290163 190.00922108 C325.85193424 193.57638947 325.91396378 195.64516951 325.90504169 200.05267811 C325.90496616 201.29381367 325.90489063 202.53494923 325.90481281 203.81369495 C325.89970581 205.17314157 325.89448981 206.53258777 325.88917255 207.89203358 C325.88730772 209.27922992 325.88588413 210.66642692 325.88488483 212.05362415 C325.88106478 215.7065662 325.87123886 219.35946855 325.86018085 223.01239491 C325.84995574 226.73919608 325.84538485 230.46600367 325.84034443 234.19281483 C325.82961614 241.50663502 325.81254585 248.82042249 325.7915163 256.13422108 C326.7815163 256.13422108 327.7715163 256.13422108 328.7915163 256.13422108 C328.9565163 255.20609608 329.1215163 254.27797108 329.2915163 253.32172108 C332.24704904 243.1116989 341.3750786 234.12366205 350.1977663 228.63812733 C363.16602987 221.72308805 377.55356047 219.74316887 391.7290163 223.82172108 C405.82346344 228.82073681 417.04108873 237.50950487 423.7915163 251.13422108 C424.1215163 252.78422108 424.4515163 254.43422108 424.7915163 256.13422108 C431.3915163 256.13422108 437.9915163 256.13422108 444.7915163 256.13422108 C444.7915163 244.91422108 444.7915163 233.69422108 444.7915163 222.13422108 C440.8315163 222.13422108 436.8715163 222.13422108 432.7915163 222.13422108 C425.28155358 220.71674863 419.19850487 217.44531611 414.7915163 211.13422108 C410.35272852 204.06650839 410.41895047 196.35392668 410.3540163 188.25922108 C410.34378437 187.24795155 410.33355244 186.23668201 410.32301044 185.19476795 C410.43193212 176.06058108 410.43193212 176.06058108 413.7915163 172.13422108 C416.52830356 170.76582745 418.83416054 170.9178729 421.8930788 170.81781483 C423.71065693 170.75497303 423.71065693 170.75497303 425.5649538 170.6908617 C426.83596943 170.6515453 428.10698505 170.61222889 429.4165163 170.57172108 C431.3346413 170.50694569 431.3346413 170.50694569 433.2915163 170.4408617 C436.45806978 170.33452222 439.62470383 170.23249275 442.7915163 170.13422108 C438.88303083 162.99404415 435.26750676 157.96534497 427.17106342 155.48936939 C422.0003284 154.02941515 417.19308963 153.69293936 411.8437624 153.70184803 C410.90595936 153.69165638 409.96815632 153.68146473 409.00193501 153.67096424 C405.93954537 153.64106226 402.87746967 153.63160337 399.8149538 153.62250233 C397.67689207 153.60563872 395.53884015 153.58748624 393.40079975 153.56810474 C387.80153692 153.52078133 382.2023139 153.49085791 376.60291767 153.46466541 C370.87794354 153.43477052 365.15310631 153.38827099 359.42823505 153.34320545 C348.21606734 153.25737335 337.0038713 153.18993898 325.7915163 153.13422108 C325.80746845 153.89202869 325.8234206 154.64983631 325.83985615 155.4306078 C325.85226337 156.42334705 325.8646706 157.41608631 325.8774538 158.43890858 C325.89340595 159.42359119 325.9093581 160.40827381 325.92579365 161.4227953 C325.76189707 164.73231412 324.96054457 166.63149616 322.7915163 169.13422108 C319.66209165 170.6989334 316.18069407 170.83124066 312.7915163 170.13422108 C311.4715163 168.81422108 310.1515163 167.49422108 308.7915163 166.13422108 C308.7915163 116.96422108 308.7915163 67.79422108 308.7915163 17.13422108 C207.1515163 17.13422108 105.5115163 17.13422108 0.7915163 17.13422108 C0.7915163 65.64422108 0.7915163 114.15422108 0.7915163 164.13422108 C-2.2084837 169.13422108 -2.2084837 169.13422108 -4.2084837 170.13422108 C-11.45683097 170.71876521 -11.45683097 170.71876521 -14.30613232 168.50292492 C-16.77350491 165.43068759 -16.71120291 163.72230611 -16.71641827 159.80917835 C-16.72769756 158.50815678 -16.73897686 157.2071352 -16.75059795 155.86668873 C-16.74282081 154.42672984 -16.73462814 152.98677314 -16.72606182 151.54681873 C-16.73148259 150.02888282 -16.738605 148.51095218 -16.74730206 146.9930315 C-16.76554705 142.87096509 -16.75846238 138.74929887 -16.74578571 134.6272254 C-16.73566037 130.31251952 -16.74505044 125.99784797 -16.75133038 121.68314075 C-16.75860971 114.43500079 -16.74901325 107.1870238 -16.72996807 99.93890858 C-16.70821512 91.56367047 -16.71523795 83.18882211 -16.73727369 74.81359351 C-16.75543918 67.62108804 -16.75797992 60.42869976 -16.74751902 53.23617876 C-16.74128827 48.94129037 -16.74043654 44.64658499 -16.75366497 40.35170841 C-16.76523905 36.31159307 -16.75716969 32.27197873 -16.73408794 28.23191738 C-16.7288084 26.75088997 -16.73030176 25.26982024 -16.7391386 23.78880978 C-16.7501061 21.76363242 -16.73389951 19.7383627 -16.71641827 17.71323109 C-16.71491016 16.58093382 -16.71340206 15.44863655 -16.71184826 14.28202724 C-15.90513338 9.2372103 -13.35047976 6.14026523 -9.5834837 2.82172108 C-6.06982063 0.325171 -4.27447013 0.00792665 0 0 Z M325.7915163 51.13422108 C325.7915163 56.74422108 325.7915163 62.35422108 325.7915163 68.13422108 C351.2015163 68.13422108 376.6115163 68.13422108 402.7915163 68.13422108 C401.40887148 61.23038722 401.40887148 61.23038722 397.9790163 56.25922108 C397.25778584 55.42777576 397.25778584 55.42777576 396.52198505 54.57953358 C392.50747144 51.22655381 388.43470383 50.88710791 383.34888935 50.9071703 C382.06793888 50.90732136 380.78698841 50.90747242 379.46722126 50.90762806 C378.07922426 50.91783978 376.69122886 50.92827174 375.30323505 50.93890858 C373.87548744 50.94264158 372.44773725 50.9454872 371.01998615 50.94748402 C367.27332632 50.9550979 363.52682304 50.97472689 359.7802248 50.99689198 C355.95262997 51.01739894 352.12500969 51.02649608 348.29737568 51.03656483 C340.79534312 51.05797511 333.29347165 51.09313871 325.7915163 51.13422108 Z M325.7915163 85.13422108 C325.7915163 101.96422108 325.7915163 118.79422108 325.7915163 136.13422108 C353.1815163 136.13422108 380.5715163 136.13422108 408.7915163 136.13422108 C406.8321413 128.09047108 404.8727663 120.04672108 402.8540163 111.75922108 C402.23663593 109.21928455 401.61925556 106.67934803 400.98316669 104.06244373 C400.49369303 102.05767703 400.00404067 100.05295394 399.51417255 98.04828358 C399.26018696 97.00051746 399.00620136 95.95275135 398.74451923 94.87323475 C398.37925129 93.38134632 398.37925129 93.38134632 398.00660419 91.85931873 C397.7956461 90.99328022 397.584688 90.12724171 397.36733723 89.2349596 C396.85535318 87.09951162 396.85535318 87.09951162 395.7915163 85.13422108 C372.6915163 85.13422108 349.5915163 85.13422108 325.7915163 85.13422108 Z M427.7915163 188.13422108 C427.18299257 196.2260525 427.18299257 196.2260525 430.7915163 203.13422108 C433.95241544 205.11671483 436.34505712 205.35649632 440.0415163 205.25922108 C441.6090163 205.21797108 443.1765163 205.17672108 444.7915163 205.13422108 C444.7915163 199.52422108 444.7915163 193.91422108 444.7915163 188.13422108 C439.1815163 188.13422108 433.5715163 188.13422108 427.7915163 188.13422108 Z M68.7915163 250.13422108 C61.54487029 259.94673961 59.76846444 269.03663276 60.7915163 281.13422108 C61.65265878 284.51029102 62.93743831 287.19666625 64.7915163 290.13422108 C65.4102663 291.16095936 65.4102663 291.16095936 66.0415163 292.20843983 C70.95939993 299.54335148 78.24148555 304.87973535 86.7915163 307.13422108 C98.83683294 308.285218 108.47785975 306.52820655 117.97511005 298.89203358 C125.19413567 291.90587976 128.83139669 283.19971147 129.2290163 273.25922108 C128.88720054 262.89957404 125.32833868 255.70298845 118.1587038 248.29828358 C110.37540945 241.18286267 102.4588437 238.60179965 91.91261005 238.82562733 C82.92125394 239.714635 75.0849116 243.68165431 68.7915163 250.13422108 Z M349.7915163 252.13422108 C343.12596499 260.75562666 341.84251033 269.38672845 342.7915163 280.13422108 C345.0642489 289.56089604 350.74063667 297.39425342 358.67823505 302.88031483 C367.20783934 307.94131848 376.69603685 308.32574637 386.37354755 306.70062733 C395.21693089 304.20713395 401.89352618 298.11533806 406.5727663 290.36859608 C406.9749538 289.63125233 407.3771413 288.89390858 407.7915163 288.13422108 C408.1318288 287.52062733 408.4721413 286.90703358 408.8227663 286.27484608 C412.15558455 279.05373988 411.86524442 270.45506899 409.98292255 262.88031483 C406.09740274 252.35311063 399.12821541 245.68167574 389.05323505 241.00922108 C374.06988208 235.21255257 360.1538971 240.78049338 349.7915163 252.13422108 Z " fill="#000000" transform="translate(50.20848369598389,93.86577892303467)"/>
<path d="M0 0 C3.0261912 2.0174608 3.81051292 3.45522464 5 6.875 C5 13.09558985 -0.14364897 17.3764555 -4.29852295 21.55847168 C-4.99165588 22.24598511 -5.68478882 22.93349854 -6.39892578 23.6418457 C-7.50689011 24.75265755 -7.50689011 24.75265755 -8.63723755 25.88591003 C-11.0684106 28.32077375 -13.50668373 30.74838662 -15.9453125 33.17578125 C-17.63910783 34.86838405 -19.33253321 36.56135715 -21.02560425 38.25468445 C-24.5681819 41.79570036 -28.11408755 45.33333751 -31.66259766 48.8684082 C-36.21873939 53.40751515 -40.76822502 57.95322269 -45.31547737 62.5012331 C-48.80834542 65.9938298 -52.30380909 69.48381867 -55.80016708 72.97292137 C-57.47935989 74.64892553 -59.15794201 76.32554177 -60.8359108 78.00277138 C-63.17472037 80.33942205 -65.51678717 82.67275561 -67.85986328 85.00512695 C-68.55704468 85.70276154 -69.25422607 86.40039612 -69.97253418 87.11917114 C-70.92720078 88.06744026 -70.92720078 88.06744026 -71.90115356 89.03486633 C-72.45456484 89.58660176 -73.00797611 90.13833719 -73.57815742 90.70679188 C-76.35106523 93.22883402 -79.10305688 93.52227161 -82.80636597 93.46807861 C-85.52775062 92.88738834 -86.68678076 91.89193114 -88.72314453 90.01074219 C-89.41748596 89.3727771 -90.11182739 88.73481201 -90.82720947 88.07751465 C-94.53030767 84.53679563 -98.18665534 80.95577132 -101.8046875 77.328125 C-102.60987823 76.52389099 -103.41506897 75.71965698 -104.24465942 74.89105225 C-105.93158718 73.20480048 -107.6172709 71.51730333 -109.30175781 69.82861328 C-111.88493268 67.24004658 -114.47344803 64.65690581 -117.0625 62.07421875 C-118.70605021 60.43000835 -120.34929051 58.7854881 -121.9921875 57.140625 C-122.76609833 56.3687384 -123.54000916 55.59685181 -124.33737183 54.80157471 C-125.05216705 54.08362732 -125.76696228 53.36567993 -126.50341797 52.62597656 C-127.44651321 51.68168793 -127.44651321 51.68168793 -128.40866089 50.71832275 C-130.91822383 48.00850492 -131.95775242 46.32590993 -132.4375 42.625 C-132 39 -132 39 -129.9375 36.0625 C-127 34 -127 34 -123.6875 33.25 C-119.87041242 34.0263568 -118.98934085 34.58530819 -116.22851562 37.09399414 C-115.17857422 38.04666672 -115.17857422 38.04666672 -114.10742188 39.01858521 C-110.89708651 42.03696803 -107.75892124 45.1173806 -104.65625 48.24609375 C-104.00168823 48.90207047 -103.34712646 49.55804718 -102.67272949 50.23390198 C-100.61276177 52.29940145 -98.55632634 54.36837595 -96.5 56.4375 C-95.0913795 57.85114434 -93.68252733 59.26455786 -92.2734375 60.67773438 C-88.84627867 64.11583149 -85.42227981 67.55704656 -82 71 C-79.17994573 69.71570457 -77.13200185 68.37962327 -74.95089722 66.18467712 C-74.3761264 65.61121048 -73.80135559 65.03774384 -73.20916748 64.44689941 C-72.59084045 63.81981079 -71.97251343 63.19272217 -71.33544922 62.54663086 C-70.34452774 61.55373802 -70.34452774 61.55373802 -69.33358765 60.54078674 C-67.15265439 58.353366 -64.97877948 56.15906234 -62.8046875 53.96484375 C-61.29112784 52.44501403 -59.7770521 50.92569809 -58.26248169 49.40687561 C-54.27729571 45.40838592 -50.29771464 41.4043678 -46.31970215 37.39874268 C-39.94616006 30.98207805 -33.56587995 24.57213027 -27.18237686 18.16537666 C-24.94975291 15.9225013 -22.72055687 13.67625936 -20.4916687 11.42967224 C-19.12981422 10.06099241 -17.76785118 8.69242059 -16.40576172 7.32397461 C-15.78338623 6.69486176 -15.16101074 6.0657489 -14.51977539 5.41757202 C-9.77961745 0.66479055 -6.82308929 -0.95928582 0 0 Z " fill="#000000" transform="translate(277,171)"/>
<path d="M0 0 C1.22164856 -0.0071553 2.44329712 -0.01431061 3.70196533 -0.02168274 C7.04543236 -0.03568135 10.38734964 -0.0272757 13.73069 -0.00759244 C17.23306681 0.0088159 20.73539388 -0.00002185 24.23779297 -0.00511169 C30.11894467 -0.00963026 35.99977807 0.00622205 41.88085938 0.03417969 C48.67533529 0.06623088 55.46923722 0.06621531 62.26375389 0.04896492 C68.80613765 0.03308808 75.34831143 0.03984071 81.89068604 0.05690193 C84.67211513 0.06376547 87.45337557 0.06274727 90.23480225 0.05535698 C94.12029821 0.04625679 98.00520687 0.07025468 101.890625 0.09765625 C103.04298645 0.09113037 104.1953479 0.08460449 105.38262939 0.07788086 C113.1658828 0.17132753 113.1658828 0.17132753 117.15722656 2.52577209 C119.19766971 4.9282344 119.62378513 6.00830205 119.5703125 9.13110352 C119.58320313 9.88391602 119.59609375 10.63672852 119.609375 11.41235352 C118.55622509 14.93111322 117.12395466 15.75606162 113.9453125 17.63110352 C109.93181315 18.24289351 105.94399579 18.18750522 101.890625 18.16455078 C100.66897644 18.17316635 99.44732788 18.18178192 98.18865967 18.19065857 C94.84541283 18.20945323 91.50315828 18.21022009 88.159935 18.2013371 C85.36661388 18.19622088 82.57338134 18.20352476 79.78006935 18.21080917 C73.18988907 18.22779911 66.5999404 18.22425113 60.00976562 18.20751953 C53.21523003 18.190592 46.42133659 18.20644271 39.62687111 18.23874241 C33.78805099 18.26544561 27.94943069 18.27271264 22.11055565 18.26422733 C18.62549966 18.25930095 15.14083015 18.26149755 11.65582275 18.28201485 C7.77029296 18.30379617 3.88553652 18.28496496 0 18.26220703 C-1.72854218 18.27974533 -1.72854218 18.27974533 -3.49200439 18.29763794 C-11.25994263 18.20489184 -11.25994263 18.20489184 -15.26904297 15.31040955 C-17.64405493 11.74677538 -17.80504093 9.83308272 -17.0546875 5.63110352 C-12.70653013 -0.89317612 -7.12279761 -0.07227001 0 0 Z " fill="#000000" transform="translate(222.0546875,315.368896484375)"/>
<path d="M0 0 C1.07680527 -0.00700928 2.15361053 -0.01401855 3.26304626 -0.02124023 C6.82601635 -0.0388598 10.38819357 -0.02718275 13.95117188 -0.01367188 C16.42452141 -0.01636563 18.89786992 -0.02024708 21.37121582 -0.02526855 C26.55633623 -0.031169 31.74118113 -0.02258265 36.92626953 -0.00390625 C43.57809143 0.01888337 50.22899875 0.00576344 56.88083649 -0.01819611 C61.98859536 -0.03263902 67.09620078 -0.02805491 72.20396423 -0.01768494 C74.65681535 -0.01501351 77.10968032 -0.01830196 79.56251526 -0.02760315 C82.98866772 -0.03774345 86.41376968 -0.02230144 89.83984375 0 C90.85711044 -0.00809692 91.87437714 -0.01619385 92.92247009 -0.02453613 C99.78723036 0.05839261 99.78723036 0.05839261 103.04797363 2.42492676 C104.95997127 5.34132283 104.982896 7.21692018 104.81835938 10.61523438 C104.2109661 13.51523951 102.75492395 14.80066483 100.41992188 16.51757812 C98.09398705 17.68054554 96.74126397 17.64815039 94.15092468 17.65802002 C92.80716766 17.66658524 92.80716766 17.66658524 91.43626404 17.67532349 C89.95803917 17.67700027 89.95803917 17.67700027 88.44995117 17.67871094 C87.41405853 17.68367584 86.37816589 17.68864075 85.31088257 17.6937561 C81.87196191 17.70840299 78.43308739 17.71518409 74.99414062 17.72070312 C72.61001076 17.72645268 70.22588092 17.73221044 67.8417511 17.73797607 C62.83728825 17.74849339 57.8328415 17.75433121 52.82836914 17.7578125 C46.4122056 17.76329744 39.99625426 17.7873226 33.58015728 17.81578445 C28.65340044 17.8343983 23.72669482 17.83961578 18.79990578 17.84114838 C16.43439385 17.84417847 14.0688829 17.85221895 11.70340538 17.86533356 C8.39479768 17.88236681 5.08670979 17.88052018 1.77807617 17.87402344 C0.79866562 17.88323822 -0.18074493 17.892453 -1.18983459 17.90194702 C-6.10601709 17.87167051 -9.6363892 17.8179734 -13.58007812 14.51757812 C-15.14479045 11.38815347 -15.2770977 7.90675589 -14.58007812 4.51757812 C-11.02461101 -0.94325062 -5.87114124 -0.04673129 0 0 Z " fill="#000000" transform="translate(31.580078125,281.482421875)"/>
<path d="M0 0 C4.44846179 2.5093887 7.03389787 5.72154358 8.8125 10.5 C9.69123343 15.46912093 9.48374916 19.86050877 7.125 24.375 C4.14856419 28.39721055 1.5832186 30.90976047 -3.1875 32.5 C-8.8050038 33.09906946 -13.85371665 33.12485961 -18.6484375 29.88671875 C-22.24102958 26.64973858 -24.68157358 23.04294597 -25.6328125 18.26171875 C-25.92229695 12.67466894 -24.51954622 8.00386676 -21.1875 3.5 C-14.69629195 -1.66647171 -7.74368509 -3.32919794 0 0 Z " fill="#000000" transform="translate(435.1875,351.5)"/>
<path d="M0 0 C4.51846921 3.04505534 8.13526194 6.71828583 9.875 11.9375 C10.41331595 18.2896282 9.51647114 22.63974682 5.875 27.9375 C0.96051036 32.61225844 -3.06841946 33.24373664 -9.625 33.1484375 C-14.64040842 32.72526241 -17.71386286 30.61904014 -20.9375 26.9375 C-24.65162202 21.84384695 -24.78510656 17.05510725 -24.125 10.9375 C-22.36115206 5.59556053 -18.98087731 2.62373 -14.125 -0.0625 C-9.19058151 -1.70730616 -4.86089501 -1.6527043 0 0 Z " fill="#000000" transform="translate(152.125,351.0625)"/>
</svg>
